<svg width="24" height="24" viewBox="0 0 24 24" fill="none" xmlns="http://www.w3.org/2000/svg">
    <path d="M8.5 2.20245C10.2728 0.95337 12.9273 0.927774 14.709 2.17511H14.71L20.4697 6.20538H20.4707L20.7168 6.39288C21.2799 6.85406 21.7558 7.48155 22.1025 8.14581C22.4988 8.9049 22.7597 9.77615 22.7598 10.5999V17.3802C22.7597 20.3442 20.3546 22.7501 17.3906 22.7503H6.61035C3.64417 22.7503 1.24046 20.3323 1.24023 17.3704V10.47C1.24023 9.69683 1.47806 8.86795 1.83691 8.13898C2.19602 7.40964 2.70819 6.71464 3.31836 6.23859L8.3291 2.32843L8.33105 2.32745L8.5 2.20245Z" fill="white" stroke="#D9D9D9" stroke-width="1.5"/>
</svg>
