<svg width="24" height="24" viewBox="0 0 24 24" fill="none" xmlns="http://www.w3.org/2000/svg">
    <path d="M8.49976 2.20245C10.2726 0.95337 12.9271 0.927774 14.7087 2.17511H14.7097L20.4695 6.20538H20.4705L20.7166 6.39288C21.2797 6.85406 21.7555 7.48155 22.1023 8.14581C22.4985 8.9049 22.7595 9.77615 22.7595 10.5999V17.3802C22.7594 20.3442 20.3544 22.7501 17.3904 22.7503H6.61011C3.64393 22.7503 1.24022 20.3323 1.23999 17.3704V10.47C1.23999 9.69683 1.47781 8.86795 1.83667 8.13898C2.19577 7.40964 2.70794 6.71464 3.31812 6.23859L8.32886 2.32843L8.33081 2.32745L8.49976 2.20245Z" fill="#DBEBE7" stroke="#129575" stroke-width="1.5"/>
</svg>
