<svg width="24" height="24" viewBox="0 0 24 24" fill="none" xmlns="http://www.w3.org/2000/svg">
    <path d="M12.0205 2.54999C15.3637 2.55015 18.0898 5.27581 18.0898 8.63007V10.5002C18.0899 10.8026 18.1571 11.1688 18.25 11.5012C18.3424 11.8319 18.4748 12.1781 18.6318 12.4367V12.4377L19.7617 14.3176C20.0945 14.879 20.1572 15.5391 19.9326 16.1428C19.7335 16.669 19.3426 17.0952 18.8281 17.3351L18.6006 17.426C17.6765 17.7339 16.7317 17.9819 15.7793 18.1564L15.3711 18.2258L15.3604 18.2277L15.0752 18.2717L15.0566 18.2736L15.0381 18.2766L14.5254 18.343L14.5127 18.3449C14.4097 18.359 14.3036 18.3702 14.1943 18.381L13.8564 18.4123H13.8516C13.2481 18.4707 12.6345 18.5002 12.0205 18.5002C11.5522 18.5002 11.0839 18.4833 10.6201 18.4504L10.1572 18.4123L10.1475 18.4113L9.76855 18.3762L9.39648 18.3254L9.38672 18.3244L8.95117 18.2648H8.9502C8.88955 18.2543 8.83125 18.246 8.7832 18.2394L8.63965 18.218L8.63477 18.217L7.82227 18.0646C7.14867 17.9258 6.48326 17.7574 5.82324 17.5529L5.42871 17.426L5.4248 17.424L5.18457 17.3322C4.72131 17.124 4.36323 16.7809 4.15234 16.3683L4.05957 16.1564L4.05859 16.1545L3.99316 15.9396C3.8706 15.4276 3.96243 14.8451 4.28125 14.3039L4.28027 14.3029L5.40918 12.4279L5.41211 12.423C5.56227 12.1665 5.69093 11.8201 5.78223 11.4885C5.8733 11.1575 5.94037 10.7924 5.94043 10.4904V8.63007C5.94043 5.27782 8.66481 2.55981 12.0205 2.54999ZM11.9902 5.63983C11.2942 5.63983 10.7307 6.20363 10.7305 6.8996V10.0002C10.7306 10.6962 11.2942 11.2599 11.9902 11.2599C12.6863 11.2599 13.2499 10.6962 13.25 10.0002V6.8996C13.2498 6.20365 12.6862 5.63985 11.9902 5.63983Z" fill="#DBEBE7" stroke="#129575"/>
    <path d="M14.8302 20.01C14.4102 21.17 13.3002 22 12.0002 22C11.2102 22 10.4302 21.68 9.88018 21.11C9.56018 20.81 9.32018 20.41 9.18018 20C9.31018 20.02 9.44018 20.03 9.58018 20.05C9.81018 20.08 10.0502 20.11 10.2902 20.13C10.8602 20.18 11.4402 20.21 12.0202 20.21C12.5902 20.21 13.1602 20.18 13.7202 20.13C13.9302 20.11 14.1402 20.1 14.3402 20.07C14.5002 20.05 14.6602 20.03 14.8302 20.01Z" fill="#DBEBE7" stroke="#129575"/>
</svg>
