<svg width="24" height="24" viewBox="0 0 24 24" fill="none" xmlns="http://www.w3.org/2000/svg">
    <path d="M12 2.5C14.3439 2.5 16.25 4.40614 16.25 6.75C16.24 9.05196 14.4419 10.9097 12.1523 10.9902H12.124C12.0448 10.9818 11.9635 10.9833 11.8867 10.9893C9.53765 10.9032 7.75 9.04362 7.75 6.75C7.75 4.40614 9.65614 2.5 12 2.5Z" fill="#DBEBE7" stroke="#129575"/>
    <path d="M12.0127 13.255C13.6639 13.255 15.2901 13.6483 16.5547 14.4093L16.8027 14.5656C17.8867 15.2882 18.4582 16.2129 18.5322 17.172L18.54 17.3644C18.5385 18.3308 18.0294 19.2688 17.0107 20.0265L16.8008 20.1749C15.4999 21.0482 13.7628 21.5001 12 21.5001C10.3472 21.5001 8.71651 21.1035 7.44727 20.3341L7.19824 20.1749L7.19727 20.174L6.98633 20.0265C5.96805 19.2763 5.45996 18.3378 5.45996 17.38C5.45996 16.3576 6.03905 15.3479 7.20801 14.5656L7.20703 14.5646C8.5135 13.7005 10.2524 13.255 12.0127 13.255Z" fill="#DBEBE7" stroke="#129575"/>
</svg>
